<svg id="visual" viewBox="0 0 900 600" width="900" height="600" xmlns="http://www.w3.org/2000/svg" xmlns:xlink="http://www.w3.org/1999/xlink" version="1.1"><path d="M0 133L13.7 141C27.3 149 54.7 165 82 175C109.3 185 136.7 189 163.8 191C191 193 218 193 245.2 178C272.3 163 299.7 133 327 132C354.3 131 381.7 159 409 179C436.3 199 463.7 211 491 210C518.3 209 545.7 195 573 174C600.3 153 627.7 125 654.8 132C682 139 709 181 736.2 188C763.3 195 790.7 167 818 166C845.3 165 872.7 191 886.3 204L900 217L900 0L886.3 0C872.7 0 845.3 0 818 0C790.7 0 763.3 0 736.2 0C709 0 682 0 654.8 0C627.7 0 600.3 0 573 0C545.7 0 518.3 0 491 0C463.7 0 436.3 0 409 0C381.7 0 354.3 0 327 0C299.7 0 272.3 0 245.2 0C218 0 191 0 163.8 0C136.7 0 109.3 0 82 0C54.7 0 27.3 0 13.7 0L0 0Z" fill="#6198ff"></path><path d="M0 235L13.7 240C27.3 245 54.7 255 82 275C109.3 295 136.7 325 163.8 324C191 323 218 291 245.2 263C272.3 235 299.7 211 327 210C354.3 209 381.7 231 409 246C436.3 261 463.7 269 491 281C518.3 293 545.7 309 573 298C600.3 287 627.7 249 654.8 259C682 269 709 327 736.2 333C763.3 339 790.7 293 818 284C845.3 275 872.7 303 886.3 317L900 331L900 215L886.3 202C872.7 189 845.3 163 818 164C790.7 165 763.3 193 736.2 186C709 179 682 137 654.8 130C627.7 123 600.3 151 573 172C545.7 193 518.3 207 491 208C463.7 209 436.3 197 409 177C381.7 157 354.3 129 327 130C299.7 131 272.3 161 245.2 176C218 191 191 191 163.8 189C136.7 187 109.3 183 82 173C54.7 163 27.3 147 13.7 139L0 131Z" fill="#3c80ff"></path><path d="M0 319L13.7 322C27.3 325 54.7 331 82 345C109.3 359 136.7 381 163.8 385C191 389 218 375 245.2 347C272.3 319 299.7 277 327 276C354.3 275 381.7 315 409 339C436.3 363 463.7 371 491 378C518.3 385 545.7 391 573 376C600.3 361 627.7 325 654.8 337C682 349 709 409 736.2 424C763.3 439 790.7 409 818 395C845.3 381 872.7 383 886.3 384L900 385L900 329L886.3 315C872.7 301 845.3 273 818 282C790.7 291 763.3 337 736.2 331C709 325 682 267 654.8 257C627.7 247 600.3 285 573 296C545.7 307 518.3 291 491 279C463.7 267 436.3 259 409 244C381.7 229 354.3 207 327 208C299.7 209 272.3 233 245.2 261C218 289 191 321 163.8 322C136.7 323 109.3 293 82 273C54.7 253 27.3 243 13.7 238L0 233Z" fill="#0066ff"></path><path d="M0 565L13.7 563C27.3 561 54.7 557 82 552C109.3 547 136.7 541 163.8 534C191 527 218 519 245.2 522C272.3 525 299.7 539 327 544C354.3 549 381.7 545 409 538C436.3 531 463.7 521 491 519C518.3 517 545.7 523 573 528C600.3 533 627.7 537 654.8 543C682 549 709 557 736.2 561C763.3 565 790.7 565 818 559C845.3 553 872.7 541 886.3 535L900 529L900 383L886.3 382C872.7 381 845.3 379 818 393C790.7 407 763.3 437 736.2 422C709 407 682 347 654.8 335C627.7 323 600.3 359 573 374C545.7 389 518.3 383 491 376C463.7 369 436.3 361 409 337C381.7 313 354.3 273 327 274C299.7 275 272.3 317 245.2 345C218 373 191 387 163.8 383C136.7 379 109.3 357 82 343C54.7 329 27.3 323 13.7 320L0 317Z" fill="#0059dd"></path><path d="M0 601L13.7 601C27.3 601 54.7 601 82 601C109.3 601 136.7 601 163.8 601C191 601 218 601 245.2 601C272.3 601 299.7 601 327 601C354.3 601 381.7 601 409 601C436.3 601 463.7 601 491 601C518.3 601 545.7 601 573 601C600.3 601 627.7 601 654.8 601C682 601 709 601 736.2 601C763.3 601 790.7 601 818 601C845.3 601 872.7 601 886.3 601L900 601L900 527L886.3 533C872.7 539 845.3 551 818 557C790.7 563 763.3 563 736.2 559C709 555 682 547 654.8 541C627.7 535 600.3 531 573 526C545.7 521 518.3 515 491 517C463.7 519 436.3 529 409 536C381.7 543 354.3 547 327 542C299.7 537 272.3 523 245.2 520C218 517 191 525 163.8 532C136.7 539 109.3 545 82 550C54.7 555 27.3 559 13.7 561L0 563Z" fill="#004cbb"></path></svg>